#tb 0: 1/100
0,          0,          0,        1,   112320, 0xb8afe429
0,         10,         10,        1,   112320, 0xae588a4b
0,        310,        310,        1,   112320, 0xccdd27b7
